<svg viewBox="0 0 500 500">
  <defs>
    <clipPath id="a">
      <circle cx="26" cy="138" r="7"/>
      <circle cx="26" cy="152" r="7"/>
      <circle cx="26" cy="222" r="7"/>
      <circle cx="26" cy="236" r="7"/>
      <circle cx="26" cy="278" r="7"/>
      <circle cx="26" cy="292" r="7"/>
      <circle cx="26" cy="348" r="7"/>
      <circle cx="40" cy="166" r="7"/>
      <circle cx="40" cy="208" r="7"/>
      <circle cx="40" cy="236" r="7"/>
      <circle cx="40" cy="250" r="7"/>
      <circle cx="40" cy="264" r="7"/>
      <circle cx="40" cy="320" r="7"/>
      <circle cx="40" cy="334" r="7"/>
      <circle cx="40" cy="348" r="7"/>
      <circle cx="40" cy="362" r="7"/>
      <circle cx="54" cy="138" r="7"/>
      <circle cx="54" cy="152" r="7"/>
      <circle cx="54" cy="166" r="7"/>
      <circle cx="54" cy="180" r="7"/>
      <circle cx="54" cy="194" r="7"/>
      <circle cx="54" cy="236" r="7"/>
      <circle cx="54" cy="250" r="7"/>
      <circle cx="54" cy="264" r="7"/>
      <circle cx="54" cy="292" r="7"/>
      <circle cx="54" cy="306" r="7"/>
      <circle cx="54" cy="348" r="7"/>
      <circle cx="54" cy="362" r="7"/>
      <circle cx="68" cy="138" r="7"/>
      <circle cx="68" cy="180" r="7"/>
      <circle cx="68" cy="194" r="7"/>
      <circle cx="68" cy="222" r="7"/>
      <circle cx="68" cy="264" r="7"/>
      <circle cx="68" cy="292" r="7"/>
      <circle cx="68" cy="320" r="7"/>
      <circle cx="82" cy="152" r="7"/>
      <circle cx="82" cy="180" r="7"/>
      <circle cx="82" cy="194" r="7"/>
      <circle cx="82" cy="208" r="7"/>
      <circle cx="82" cy="222" r="7"/>
      <circle cx="82" cy="264" r="7"/>
      <circle cx="82" cy="292" r="7"/>
      <circle cx="82" cy="334" r="7"/>
      <circle cx="96" cy="138" r="7"/>
      <circle cx="96" cy="180" r="7"/>
      <circle cx="96" cy="194" r="7"/>
      <circle cx="96" cy="208" r="7"/>
      <circle cx="96" cy="250" r="7"/>
      <circle cx="96" cy="306" r="7"/>
      <circle cx="96" cy="348" r="7"/>
      <circle cx="110" cy="138" r="7"/>
      <circle cx="110" cy="166" r="7"/>
      <circle cx="110" cy="194" r="7"/>
      <circle cx="110" cy="222" r="7"/>
      <circle cx="110" cy="250" r="7"/>
      <circle cx="110" cy="278" r="7"/>
      <circle cx="110" cy="306" r="7"/>
      <circle cx="110" cy="334" r="7"/>
      <circle cx="110" cy="362" r="7"/>
      <circle cx="124" cy="138" r="7"/>
      <circle cx="124" cy="152" r="7"/>
      <circle cx="124" cy="166" r="7"/>
      <circle cx="124" cy="180" r="7"/>
      <circle cx="124" cy="194" r="7"/>
      <circle cx="124" cy="208" r="7"/>
      <circle cx="124" cy="250" r="7"/>
      <circle cx="124" cy="264" r="7"/>
      <circle cx="124" cy="278" r="7"/>
      <circle cx="124" cy="292" r="7"/>
      <circle cx="124" cy="306" r="7"/>
      <circle cx="124" cy="320" r="7"/>
      <circle cx="124" cy="362" r="7"/>
      <circle cx="138" cy="40" r="7"/>
      <circle cx="138" cy="68" r="7"/>
      <circle cx="138" cy="96" r="7"/>
      <circle cx="138" cy="110" r="7"/>
      <circle cx="138" cy="124" r="7"/>
      <circle cx="138" cy="138" r="7"/>
      <circle cx="138" cy="152" r="7"/>
      <circle cx="138" cy="180" r="7"/>
      <circle cx="138" cy="222" r="7"/>
      <circle cx="138" cy="236" r="7"/>
      <circle cx="138" cy="250" r="7"/>
      <circle cx="138" cy="292" r="7"/>
      <circle cx="138" cy="320" r="7"/>
      <circle cx="138" cy="334" r="7"/>
      <circle cx="138" cy="362" r="7"/>
      <circle cx="138" cy="376" r="7"/>
      <circle cx="138" cy="390" r="7"/>
      <circle cx="138" cy="404" r="7"/>
      <circle cx="138" cy="432" r="7"/>
      <circle cx="138" cy="446" r="7"/>
      <circle cx="138" cy="474" r="7"/>
      <circle cx="152" cy="40" r="7"/>
      <circle cx="152" cy="82" r="7"/>
      <circle cx="152" cy="96" r="7"/>
      <circle cx="152" cy="152" r="7"/>
      <circle cx="152" cy="166" r="7"/>
      <circle cx="152" cy="194" r="7"/>
      <circle cx="152" cy="208" r="7"/>
      <circle cx="152" cy="222" r="7"/>
      <circle cx="152" cy="236" r="7"/>
      <circle cx="152" cy="278" r="7"/>
      <circle cx="152" cy="306" r="7"/>
      <circle cx="152" cy="362" r="7"/>
      <circle cx="152" cy="376" r="7"/>
      <circle cx="152" cy="390" r="7"/>
      <circle cx="152" cy="404" r="7"/>
      <circle cx="152" cy="460" r="7"/>
      <circle cx="152" cy="474" r="7"/>
      <circle cx="166" cy="26" r="7"/>
      <circle cx="166" cy="68" r="7"/>
      <circle cx="166" cy="82" r="7"/>
      <circle cx="166" cy="96" r="7"/>
      <circle cx="166" cy="110" r="7"/>
      <circle cx="166" cy="124" r="7"/>
      <circle cx="166" cy="152" r="7"/>
      <circle cx="166" cy="180" r="7"/>
      <circle cx="166" cy="194" r="7"/>
      <circle cx="166" cy="236" r="7"/>
      <circle cx="166" cy="250" r="7"/>
      <circle cx="166" cy="264" r="7"/>
      <circle cx="166" cy="292" r="7"/>
      <circle cx="166" cy="306" r="7"/>
      <circle cx="166" cy="320" r="7"/>
      <circle cx="166" cy="334" r="7"/>
      <circle cx="166" cy="376" r="7"/>
      <circle cx="166" cy="390" r="7"/>
      <circle cx="166" cy="404" r="7"/>
      <circle cx="166" cy="418" r="7"/>
      <circle cx="166" cy="446" r="7"/>
      <circle cx="166" cy="474" r="7"/>
      <circle cx="180" cy="96" r="7"/>
      <circle cx="180" cy="124" r="7"/>
      <circle cx="180" cy="138" r="7"/>
      <circle cx="180" cy="152" r="7"/>
      <circle cx="180" cy="166" r="7"/>
      <circle cx="180" cy="250" r="7"/>
      <circle cx="180" cy="264" r="7"/>
      <circle cx="180" cy="348" r="7"/>
      <circle cx="180" cy="376" r="7"/>
      <circle cx="180" cy="390" r="7"/>
      <circle cx="180" cy="418" r="7"/>
      <circle cx="180" cy="432" r="7"/>
      <circle cx="180" cy="460" r="7"/>
      <circle cx="194" cy="26" r="7"/>
      <circle cx="194" cy="40" r="7"/>
      <circle cx="194" cy="54" r="7"/>
      <circle cx="194" cy="68" r="7"/>
      <circle cx="194" cy="82" r="7"/>
      <circle cx="194" cy="110" r="7"/>
      <circle cx="194" cy="124" r="7"/>
      <circle cx="194" cy="152" r="7"/>
      <circle cx="194" cy="180" r="7"/>
      <circle cx="194" cy="194" r="7"/>
      <circle cx="194" cy="208" r="7"/>
      <circle cx="194" cy="222" r="7"/>
      <circle cx="194" cy="250" r="7"/>
      <circle cx="194" cy="292" r="7"/>
      <circle cx="194" cy="362" r="7"/>
      <circle cx="194" cy="390" r="7"/>
      <circle cx="194" cy="404" r="7"/>
      <circle cx="194" cy="432" r="7"/>
      <circle cx="194" cy="474" r="7"/>
      <circle cx="208" cy="26" r="7"/>
      <circle cx="208" cy="54" r="7"/>
      <circle cx="208" cy="96" r="7"/>
      <circle cx="208" cy="152" r="7"/>
      <circle cx="208" cy="194" r="7"/>
      <circle cx="208" cy="222" r="7"/>
      <circle cx="208" cy="250" r="7"/>
      <circle cx="208" cy="334" r="7"/>
      <circle cx="208" cy="348" r="7"/>
      <circle cx="208" cy="390" r="7"/>
      <circle cx="208" cy="418" r="7"/>
      <circle cx="208" cy="432" r="7"/>
      <circle cx="208" cy="460" r="7"/>
      <circle cx="208" cy="474" r="7"/>
      <circle cx="222" cy="110" r="7"/>
      <circle cx="222" cy="124" r="7"/>
      <circle cx="222" cy="138" r="7"/>
      <circle cx="222" cy="152" r="7"/>
      <circle cx="222" cy="180" r="7"/>
      <circle cx="222" cy="194" r="7"/>
      <circle cx="222" cy="222" r="7"/>
      <circle cx="222" cy="236" r="7"/>
      <circle cx="222" cy="264" r="7"/>
      <circle cx="222" cy="306" r="7"/>
      <circle cx="222" cy="348" r="7"/>
      <circle cx="222" cy="376" r="7"/>
      <circle cx="222" cy="390" r="7"/>
      <circle cx="222" cy="418" r="7"/>
      <circle cx="222" cy="446" r="7"/>
      <circle cx="222" cy="460" r="7"/>
      <circle cx="236" cy="40" r="7"/>
      <circle cx="236" cy="68" r="7"/>
      <circle cx="236" cy="124" r="7"/>
      <circle cx="236" cy="180" r="7"/>
      <circle cx="236" cy="250" r="7"/>
      <circle cx="236" cy="264" r="7"/>
      <circle cx="236" cy="292" r="7"/>
      <circle cx="236" cy="320" r="7"/>
      <circle cx="236" cy="334" r="7"/>
      <circle cx="236" cy="348" r="7"/>
      <circle cx="236" cy="362" r="7"/>
      <circle cx="236" cy="390" r="7"/>
      <circle cx="236" cy="404" r="7"/>
      <circle cx="236" cy="460" r="7"/>
      <circle cx="250" cy="26" r="7"/>
      <circle cx="250" cy="40" r="7"/>
      <circle cx="250" cy="68" r="7"/>
      <circle cx="250" cy="82" r="7"/>
      <circle cx="250" cy="110" r="7"/>
      <circle cx="250" cy="180" r="7"/>
      <circle cx="250" cy="222" r="7"/>
      <circle cx="250" cy="236" r="7"/>
      <circle cx="250" cy="250" r="7"/>
      <circle cx="250" cy="278" r="7"/>
      <circle cx="250" cy="292" r="7"/>
      <circle cx="250" cy="306" r="7"/>
      <circle cx="250" cy="320" r="7"/>
      <circle cx="250" cy="334" r="7"/>
      <circle cx="250" cy="348" r="7"/>
      <circle cx="250" cy="390" r="7"/>
      <circle cx="250" cy="418" r="7"/>
      <circle cx="250" cy="432" r="7"/>
      <circle cx="250" cy="460" r="7"/>
      <circle cx="264" cy="40" r="7"/>
      <circle cx="264" cy="54" r="7"/>
      <circle cx="264" cy="68" r="7"/>
      <circle cx="264" cy="82" r="7"/>
      <circle cx="264" cy="124" r="7"/>
      <circle cx="264" cy="152" r="7"/>
      <circle cx="264" cy="180" r="7"/>
      <circle cx="264" cy="194" r="7"/>
      <circle cx="264" cy="236" r="7"/>
      <circle cx="264" cy="250" r="7"/>
      <circle cx="264" cy="264" r="7"/>
      <circle cx="264" cy="306" r="7"/>
      <circle cx="264" cy="320" r="7"/>
      <circle cx="264" cy="348" r="7"/>
      <circle cx="264" cy="362" r="7"/>
      <circle cx="264" cy="404" r="7"/>
      <circle cx="264" cy="432" r="7"/>
      <circle cx="264" cy="460" r="7"/>
      <circle cx="278" cy="68" r="7"/>
      <circle cx="278" cy="96" r="7"/>
      <circle cx="278" cy="110" r="7"/>
      <circle cx="278" cy="152" r="7"/>
      <circle cx="278" cy="180" r="7"/>
      <circle cx="278" cy="208" r="7"/>
      <circle cx="278" cy="250" r="7"/>
      <circle cx="278" cy="264" r="7"/>
      <circle cx="278" cy="334" r="7"/>
      <circle cx="278" cy="376" r="7"/>
      <circle cx="278" cy="446" r="7"/>
      <circle cx="278" cy="460" r="7"/>
      <circle cx="278" cy="474" r="7"/>
      <circle cx="292" cy="40" r="7"/>
      <circle cx="292" cy="54" r="7"/>
      <circle cx="292" cy="68" r="7"/>
      <circle cx="292" cy="138" r="7"/>
      <circle cx="292" cy="180" r="7"/>
      <circle cx="292" cy="208" r="7"/>
      <circle cx="292" cy="222" r="7"/>
      <circle cx="292" cy="250" r="7"/>
      <circle cx="292" cy="264" r="7"/>
      <circle cx="292" cy="278" r="7"/>
      <circle cx="292" cy="292" r="7"/>
      <circle cx="292" cy="306" r="7"/>
      <circle cx="292" cy="320" r="7"/>
      <circle cx="292" cy="348" r="7"/>
      <circle cx="292" cy="362" r="7"/>
      <circle cx="292" cy="390" r="7"/>
      <circle cx="292" cy="404" r="7"/>
      <circle cx="292" cy="460" r="7"/>
      <circle cx="306" cy="26" r="7"/>
      <circle cx="306" cy="68" r="7"/>
      <circle cx="306" cy="82" r="7"/>
      <circle cx="306" cy="110" r="7"/>
      <circle cx="306" cy="138" r="7"/>
      <circle cx="306" cy="166" r="7"/>
      <circle cx="306" cy="194" r="7"/>
      <circle cx="306" cy="222" r="7"/>
      <circle cx="306" cy="236" r="7"/>
      <circle cx="306" cy="264" r="7"/>
      <circle cx="306" cy="334" r="7"/>
      <circle cx="306" cy="348" r="7"/>
      <circle cx="306" cy="362" r="7"/>
      <circle cx="306" cy="376" r="7"/>
      <circle cx="306" cy="404" r="7"/>
      <circle cx="306" cy="460" r="7"/>
      <circle cx="320" cy="54" r="7"/>
      <circle cx="320" cy="68" r="7"/>
      <circle cx="320" cy="82" r="7"/>
      <circle cx="320" cy="166" r="7"/>
      <circle cx="320" cy="194" r="7"/>
      <circle cx="320" cy="208" r="7"/>
      <circle cx="320" cy="222" r="7"/>
      <circle cx="320" cy="236" r="7"/>
      <circle cx="320" cy="250" r="7"/>
      <circle cx="320" cy="292" r="7"/>
      <circle cx="320" cy="306" r="7"/>
      <circle cx="320" cy="320" r="7"/>
      <circle cx="320" cy="334" r="7"/>
      <circle cx="320" cy="362" r="7"/>
      <circle cx="320" cy="376" r="7"/>
      <circle cx="320" cy="390" r="7"/>
      <circle cx="320" cy="432" r="7"/>
      <circle cx="320" cy="460" r="7"/>
      <circle cx="320" cy="474" r="7"/>
      <circle cx="334" cy="26" r="7"/>
      <circle cx="334" cy="40" r="7"/>
      <circle cx="334" cy="68" r="7"/>
      <circle cx="334" cy="110" r="7"/>
      <circle cx="334" cy="124" r="7"/>
      <circle cx="334" cy="138" r="7"/>
      <circle cx="334" cy="166" r="7"/>
      <circle cx="334" cy="180" r="7"/>
      <circle cx="334" cy="194" r="7"/>
      <circle cx="334" cy="208" r="7"/>
      <circle cx="334" cy="250" r="7"/>
      <circle cx="334" cy="264" r="7"/>
      <circle cx="334" cy="278" r="7"/>
      <circle cx="334" cy="306" r="7"/>
      <circle cx="334" cy="320" r="7"/>
      <circle cx="334" cy="390" r="7"/>
      <circle cx="334" cy="404" r="7"/>
      <circle cx="334" cy="432" r="7"/>
      <circle cx="334" cy="474" r="7"/>
      <circle cx="348" cy="40" r="7"/>
      <circle cx="348" cy="96" r="7"/>
      <circle cx="348" cy="124" r="7"/>
      <circle cx="348" cy="138" r="7"/>
      <circle cx="348" cy="152" r="7"/>
      <circle cx="348" cy="166" r="7"/>
      <circle cx="348" cy="180" r="7"/>
      <circle cx="348" cy="194" r="7"/>
      <circle cx="348" cy="236" r="7"/>
      <circle cx="348" cy="250" r="7"/>
      <circle cx="348" cy="264" r="7"/>
      <circle cx="348" cy="278" r="7"/>
      <circle cx="348" cy="320" r="7"/>
      <circle cx="348" cy="348" r="7"/>
      <circle cx="348" cy="362" r="7"/>
      <circle cx="348" cy="376" r="7"/>
      <circle cx="348" cy="390" r="7"/>
      <circle cx="348" cy="404" r="7"/>
      <circle cx="348" cy="432" r="7"/>
      <circle cx="362" cy="26" r="7"/>
      <circle cx="362" cy="54" r="7"/>
      <circle cx="362" cy="82" r="7"/>
      <circle cx="362" cy="96" r="7"/>
      <circle cx="362" cy="110" r="7"/>
      <circle cx="362" cy="152" r="7"/>
      <circle cx="362" cy="166" r="7"/>
      <circle cx="362" cy="250" r="7"/>
      <circle cx="362" cy="292" r="7"/>
      <circle cx="362" cy="306" r="7"/>
      <circle cx="362" cy="320" r="7"/>
      <circle cx="362" cy="348" r="7"/>
      <circle cx="362" cy="362" r="7"/>
      <circle cx="362" cy="376" r="7"/>
      <circle cx="362" cy="390" r="7"/>
      <circle cx="362" cy="404" r="7"/>
      <circle cx="362" cy="418" r="7"/>
      <circle cx="362" cy="474" r="7"/>
      <circle cx="376" cy="138" r="7"/>
      <circle cx="376" cy="180" r="7"/>
      <circle cx="376" cy="208" r="7"/>
      <circle cx="376" cy="222" r="7"/>
      <circle cx="376" cy="236" r="7"/>
      <circle cx="376" cy="250" r="7"/>
      <circle cx="376" cy="264" r="7"/>
      <circle cx="376" cy="292" r="7"/>
      <circle cx="376" cy="306" r="7"/>
      <circle cx="376" cy="334" r="7"/>
      <circle cx="376" cy="348" r="7"/>
      <circle cx="376" cy="362" r="7"/>
      <circle cx="376" cy="418" r="7"/>
      <circle cx="376" cy="432" r="7"/>
      <circle cx="376" cy="474" r="7"/>
      <circle cx="390" cy="138" r="7"/>
      <circle cx="390" cy="152" r="7"/>
      <circle cx="390" cy="166" r="7"/>
      <circle cx="390" cy="180" r="7"/>
      <circle cx="390" cy="194" r="7"/>
      <circle cx="390" cy="250" r="7"/>
      <circle cx="390" cy="320" r="7"/>
      <circle cx="390" cy="362" r="7"/>
      <circle cx="390" cy="390" r="7"/>
      <circle cx="390" cy="418" r="7"/>
      <circle cx="390" cy="432" r="7"/>
      <circle cx="390" cy="446" r="7"/>
      <circle cx="390" cy="460" r="7"/>
      <circle cx="404" cy="138" r="7"/>
      <circle cx="404" cy="152" r="7"/>
      <circle cx="404" cy="166" r="7"/>
      <circle cx="404" cy="250" r="7"/>
      <circle cx="404" cy="264" r="7"/>
      <circle cx="404" cy="306" r="7"/>
      <circle cx="404" cy="362" r="7"/>
      <circle cx="404" cy="418" r="7"/>
      <circle cx="404" cy="460" r="7"/>
      <circle cx="404" cy="474" r="7"/>
      <circle cx="418" cy="152" r="7"/>
      <circle cx="418" cy="278" r="7"/>
      <circle cx="418" cy="334" r="7"/>
      <circle cx="418" cy="362" r="7"/>
      <circle cx="418" cy="376" r="7"/>
      <circle cx="418" cy="390" r="7"/>
      <circle cx="418" cy="404" r="7"/>
      <circle cx="418" cy="418" r="7"/>
      <circle cx="418" cy="432" r="7"/>
      <circle cx="418" cy="460" r="7"/>
      <circle cx="418" cy="474" r="7"/>
      <circle cx="432" cy="138" r="7"/>
      <circle cx="432" cy="152" r="7"/>
      <circle cx="432" cy="166" r="7"/>
      <circle cx="432" cy="222" r="7"/>
      <circle cx="432" cy="264" r="7"/>
      <circle cx="432" cy="292" r="7"/>
      <circle cx="432" cy="306" r="7"/>
      <circle cx="432" cy="320" r="7"/>
      <circle cx="432" cy="390" r="7"/>
      <circle cx="432" cy="418" r="7"/>
      <circle cx="432" cy="432" r="7"/>
      <circle cx="432" cy="460" r="7"/>
      <circle cx="446" cy="152" r="7"/>
      <circle cx="446" cy="208" r="7"/>
      <circle cx="446" cy="250" r="7"/>
      <circle cx="446" cy="278" r="7"/>
      <circle cx="446" cy="418" r="7"/>
      <circle cx="446" cy="432" r="7"/>
      <circle cx="446" cy="446" r="7"/>
      <circle cx="446" cy="474" r="7"/>
      <circle cx="460" cy="138" r="7"/>
      <circle cx="460" cy="152" r="7"/>
      <circle cx="460" cy="166" r="7"/>
      <circle cx="460" cy="250" r="7"/>
      <circle cx="460" cy="278" r="7"/>
      <circle cx="460" cy="320" r="7"/>
      <circle cx="460" cy="348" r="7"/>
      <circle cx="460" cy="362" r="7"/>
      <circle cx="474" cy="152" r="7"/>
      <circle cx="474" cy="166" r="7"/>
      <circle cx="474" cy="194" r="7"/>
      <circle cx="474" cy="222" r="7"/>
      <circle cx="474" cy="250" r="7"/>
      <circle cx="474" cy="320" r="7"/>
      <circle cx="474" cy="362" r="7"/>
      <circle cx="474" cy="376" r="7"/>
      <circle cx="474" cy="390" r="7"/>
      <circle cx="474" cy="418" r="7"/>
      <circle cx="474" cy="432" r="7"/>
      <circle cx="474" cy="460" r="7"/>
    </clipPath>
    <clipPath id="b">
      <path d="M68 19a49 49 0 1 0 .1 0zm0 14a35 35 0 1 1-.1 0Z" clip-rule="evenodd"/>
    </clipPath>
    <clipPath id="c">
      <circle cx="68" cy="68" r="21"/>
    </clipPath>
    <clipPath id="d">
      <path d="M481 68a49 49 0 1 0 0 .1zm-14 0a35 35 0 1 1 0-.1Z" clip-rule="evenodd"/>
    </clipPath>
    <clipPath id="e">
      <circle cx="432" cy="68" r="21" transform="rotate(90 432 68)"/>
    </clipPath>
    <clipPath id="f">
      <path d="M19 432a49 49 0 1 0 0-.1zm14 0a35 35 0 1 1 0 .1Z" clip-rule="evenodd"/>
    </clipPath>
    <clipPath id="g">
      <circle cx="68" cy="432" r="21" transform="rotate(-90 68 432)"/>
    </clipPath>
  </defs>
  <path fill="#fff" d="M0 0h500v500H0z" clip-path="url('#clip-path-background-color')"/>
  <path d="M0 0h500v500H0z" clip-path="url('#a')"/>
  <path d="M19 19h98v98H19z" clip-path="url('#b')"/>
  <path d="M47 47h42v42H47z" clip-path="url('#c')"/>
  <path d="M383 19h98v98h-98z" clip-path="url('#d')"/>
  <path d="M411 47h42v42h-42z" clip-path="url('#e')"/>
  <path d="M19 383h98v98H19z" clip-path="url('#f')"/>
  <path d="M47 411h42v42H47z" clip-path="url('#g')"/>
</svg>
