<svg viewBox="0 0 500 500">
    <defs>
        <clipPath id="a">
            <circle cx="26" cy="154" r="8" />
            <circle cx="26" cy="186" r="8" />
            <circle cx="26" cy="202" r="8" />
            <circle cx="26" cy="218" r="8" />
            <circle cx="26" cy="234" r="8" />
            <circle cx="26" cy="250" r="8" />
            <circle cx="26" cy="298" r="8" />
            <circle cx="26" cy="314" r="8" />
            <circle cx="42" cy="154" r="8" />
            <circle cx="42" cy="186" r="8" />
            <circle cx="42" cy="218" r="8" />
            <circle cx="42" cy="234" r="8" />
            <circle cx="42" cy="250" r="8" />
            <circle cx="42" cy="266" r="8" />
            <circle cx="42" cy="346" r="8" />
            <circle cx="58" cy="218" r="8" />
            <circle cx="58" cy="266" r="8" />
            <circle cx="58" cy="314" r="8" />
            <circle cx="58" cy="330" r="8" />
            <circle cx="58" cy="346" r="8" />
            <circle cx="74" cy="202" r="8" />
            <circle cx="74" cy="234" r="8" />
            <circle cx="74" cy="250" r="8" />
            <circle cx="74" cy="282" r="8" />
            <circle cx="74" cy="298" r="8" />
            <circle cx="74" cy="330" r="8" />
            <circle cx="90" cy="170" r="8" />
            <circle cx="90" cy="186" r="8" />
            <circle cx="90" cy="234" r="8" />
            <circle cx="90" cy="266" r="8" />
            <circle cx="90" cy="314" r="8" />
            <circle cx="90" cy="330" r="8" />
            <circle cx="90" cy="346" r="8" />
            <circle cx="106" cy="170" r="8" />
            <circle cx="106" cy="218" r="8" />
            <circle cx="106" cy="234" r="8" />
            <circle cx="106" cy="250" r="8" />
            <circle cx="106" cy="266" r="8" />
            <circle cx="106" cy="298" r="8" />
            <circle cx="106" cy="314" r="8" />
            <circle cx="106" cy="346" r="8" />
            <circle cx="122" cy="154" r="8" />
            <circle cx="122" cy="186" r="8" />
            <circle cx="122" cy="218" r="8" />
            <circle cx="122" cy="250" r="8" />
            <circle cx="122" cy="282" r="8" />
            <circle cx="122" cy="314" r="8" />
            <circle cx="122" cy="346" r="8" />
            <circle cx="138" cy="186" r="8" />
            <circle cx="138" cy="218" r="8" />
            <circle cx="138" cy="234" r="8" />
            <circle cx="138" cy="250" r="8" />
            <circle cx="138" cy="282" r="8" />
            <circle cx="138" cy="314" r="8" />
            <circle cx="154" cy="42" r="8" />
            <circle cx="154" cy="122" r="8" />
            <circle cx="154" cy="138" r="8" />
            <circle cx="154" cy="154" r="8" />
            <circle cx="154" cy="202" r="8" />
            <circle cx="154" cy="218" r="8" />
            <circle cx="154" cy="234" r="8" />
            <circle cx="154" cy="250" r="8" />
            <circle cx="154" cy="298" r="8" />
            <circle cx="154" cy="330" r="8" />
            <circle cx="154" cy="362" r="8" />
            <circle cx="154" cy="458" r="8" />
            <circle cx="154" cy="474" r="8" />
            <circle cx="170" cy="42" r="8" />
            <circle cx="170" cy="58" r="8" />
            <circle cx="170" cy="74" r="8" />
            <circle cx="170" cy="90" r="8" />
            <circle cx="170" cy="138" r="8" />
            <circle cx="170" cy="154" r="8" />
            <circle cx="170" cy="170" r="8" />
            <circle cx="170" cy="186" r="8" />
            <circle cx="170" cy="202" r="8" />
            <circle cx="170" cy="234" r="8" />
            <circle cx="170" cy="266" r="8" />
            <circle cx="170" cy="282" r="8" />
            <circle cx="170" cy="298" r="8" />
            <circle cx="170" cy="314" r="8" />
            <circle cx="170" cy="330" r="8" />
            <circle cx="170" cy="346" r="8" />
            <circle cx="170" cy="362" r="8" />
            <circle cx="170" cy="394" r="8" />
            <circle cx="170" cy="410" r="8" />
            <circle cx="170" cy="426" r="8" />
            <circle cx="170" cy="458" r="8" />
            <circle cx="186" cy="26" r="8" />
            <circle cx="186" cy="42" r="8" />
            <circle cx="186" cy="90" r="8" />
            <circle cx="186" cy="106" r="8" />
            <circle cx="186" cy="122" r="8" />
            <circle cx="186" cy="138" r="8" />
            <circle cx="186" cy="170" r="8" />
            <circle cx="186" cy="202" r="8" />
            <circle cx="186" cy="218" r="8" />
            <circle cx="186" cy="282" r="8" />
            <circle cx="186" cy="314" r="8" />
            <circle cx="186" cy="346" r="8" />
            <circle cx="186" cy="362" r="8" />
            <circle cx="186" cy="378" r="8" />
            <circle cx="186" cy="426" r="8" />
            <circle cx="202" cy="42" r="8" />
            <circle cx="202" cy="90" r="8" />
            <circle cx="202" cy="138" r="8" />
            <circle cx="202" cy="154" r="8" />
            <circle cx="202" cy="202" r="8" />
            <circle cx="202" cy="250" r="8" />
            <circle cx="202" cy="282" r="8" />
            <circle cx="202" cy="314" r="8" />
            <circle cx="202" cy="346" r="8" />
            <circle cx="202" cy="378" r="8" />
            <circle cx="202" cy="410" r="8" />
            <circle cx="218" cy="58" r="8" />
            <circle cx="218" cy="106" r="8" />
            <circle cx="218" cy="122" r="8" />
            <circle cx="218" cy="138" r="8" />
            <circle cx="218" cy="170" r="8" />
            <circle cx="218" cy="186" r="8" />
            <circle cx="218" cy="202" r="8" />
            <circle cx="218" cy="218" r="8" />
            <circle cx="218" cy="250" r="8" />
            <circle cx="218" cy="282" r="8" />
            <circle cx="218" cy="330" r="8" />
            <circle cx="218" cy="346" r="8" />
            <circle cx="218" cy="362" r="8" />
            <circle cx="218" cy="378" r="8" />
            <circle cx="218" cy="426" r="8" />
            <circle cx="218" cy="458" r="8" />
            <circle cx="234" cy="26" r="8" />
            <circle cx="234" cy="42" r="8" />
            <circle cx="234" cy="58" r="8" />
            <circle cx="234" cy="90" r="8" />
            <circle cx="234" cy="138" r="8" />
            <circle cx="234" cy="154" r="8" />
            <circle cx="234" cy="202" r="8" />
            <circle cx="234" cy="234" r="8" />
            <circle cx="234" cy="250" r="8" />
            <circle cx="234" cy="266" r="8" />
            <circle cx="234" cy="330" r="8" />
            <circle cx="234" cy="346" r="8" />
            <circle cx="234" cy="378" r="8" />
            <circle cx="234" cy="410" r="8" />
            <circle cx="234" cy="426" r="8" />
            <circle cx="234" cy="474" r="8" />
            <circle cx="250" cy="26" r="8" />
            <circle cx="250" cy="58" r="8" />
            <circle cx="250" cy="90" r="8" />
            <circle cx="250" cy="106" r="8" />
            <circle cx="250" cy="122" r="8" />
            <circle cx="250" cy="138" r="8" />
            <circle cx="250" cy="170" r="8" />
            <circle cx="250" cy="186" r="8" />
            <circle cx="250" cy="202" r="8" />
            <circle cx="250" cy="218" r="8" />
            <circle cx="250" cy="250" r="8" />
            <circle cx="250" cy="266" r="8" />
            <circle cx="250" cy="346" r="8" />
            <circle cx="250" cy="394" r="8" />
            <circle cx="266" cy="26" r="8" />
            <circle cx="266" cy="58" r="8" />
            <circle cx="266" cy="74" r="8" />
            <circle cx="266" cy="90" r="8" />
            <circle cx="266" cy="154" r="8" />
            <circle cx="266" cy="170" r="8" />
            <circle cx="266" cy="186" r="8" />
            <circle cx="266" cy="250" r="8" />
            <circle cx="266" cy="266" r="8" />
            <circle cx="266" cy="330" r="8" />
            <circle cx="266" cy="378" r="8" />
            <circle cx="266" cy="410" r="8" />
            <circle cx="266" cy="426" r="8" />
            <circle cx="266" cy="442" r="8" />
            <circle cx="266" cy="458" r="8" />
            <circle cx="282" cy="26" r="8" />
            <circle cx="282" cy="58" r="8" />
            <circle cx="282" cy="90" r="8" />
            <circle cx="282" cy="122" r="8" />
            <circle cx="282" cy="170" r="8" />
            <circle cx="282" cy="218" r="8" />
            <circle cx="282" cy="250" r="8" />
            <circle cx="282" cy="298" r="8" />
            <circle cx="282" cy="362" r="8" />
            <circle cx="282" cy="394" r="8" />
            <circle cx="282" cy="426" r="8" />
            <circle cx="282" cy="442" r="8" />
            <circle cx="282" cy="474" r="8" />
            <circle cx="298" cy="26" r="8" />
            <circle cx="298" cy="58" r="8" />
            <circle cx="298" cy="74" r="8" />
            <circle cx="298" cy="90" r="8" />
            <circle cx="298" cy="106" r="8" />
            <circle cx="298" cy="138" r="8" />
            <circle cx="298" cy="154" r="8" />
            <circle cx="298" cy="170" r="8" />
            <circle cx="298" cy="186" r="8" />
            <circle cx="298" cy="250" r="8" />
            <circle cx="298" cy="282" r="8" />
            <circle cx="298" cy="314" r="8" />
            <circle cx="298" cy="330" r="8" />
            <circle cx="298" cy="346" r="8" />
            <circle cx="298" cy="378" r="8" />
            <circle cx="298" cy="394" r="8" />
            <circle cx="298" cy="410" r="8" />
            <circle cx="298" cy="426" r="8" />
            <circle cx="298" cy="442" r="8" />
            <circle cx="298" cy="474" r="8" />
            <circle cx="314" cy="26" r="8" />
            <circle cx="314" cy="42" r="8" />
            <circle cx="314" cy="58" r="8" />
            <circle cx="314" cy="90" r="8" />
            <circle cx="314" cy="122" r="8" />
            <circle cx="314" cy="154" r="8" />
            <circle cx="314" cy="170" r="8" />
            <circle cx="314" cy="186" r="8" />
            <circle cx="314" cy="202" r="8" />
            <circle cx="314" cy="234" r="8" />
            <circle cx="314" cy="282" r="8" />
            <circle cx="314" cy="298" r="8" />
            <circle cx="314" cy="330" r="8" />
            <circle cx="314" cy="346" r="8" />
            <circle cx="314" cy="410" r="8" />
            <circle cx="314" cy="474" r="8" />
            <circle cx="330" cy="26" r="8" />
            <circle cx="330" cy="74" r="8" />
            <circle cx="330" cy="138" r="8" />
            <circle cx="330" cy="186" r="8" />
            <circle cx="330" cy="266" r="8" />
            <circle cx="330" cy="282" r="8" />
            <circle cx="330" cy="346" r="8" />
            <circle cx="330" cy="362" r="8" />
            <circle cx="330" cy="378" r="8" />
            <circle cx="330" cy="410" r="8" />
            <circle cx="330" cy="426" r="8" />
            <circle cx="330" cy="458" r="8" />
            <circle cx="330" cy="474" r="8" />
            <circle cx="346" cy="26" r="8" />
            <circle cx="346" cy="90" r="8" />
            <circle cx="346" cy="122" r="8" />
            <circle cx="346" cy="138" r="8" />
            <circle cx="346" cy="154" r="8" />
            <circle cx="346" cy="170" r="8" />
            <circle cx="346" cy="218" r="8" />
            <circle cx="346" cy="298" r="8" />
            <circle cx="346" cy="330" r="8" />
            <circle cx="346" cy="346" r="8" />
            <circle cx="346" cy="362" r="8" />
            <circle cx="346" cy="378" r="8" />
            <circle cx="346" cy="394" r="8" />
            <circle cx="346" cy="410" r="8" />
            <circle cx="346" cy="442" r="8" />
            <circle cx="346" cy="474" r="8" />
            <circle cx="362" cy="154" r="8" />
            <circle cx="362" cy="202" r="8" />
            <circle cx="362" cy="218" r="8" />
            <circle cx="362" cy="234" r="8" />
            <circle cx="362" cy="266" r="8" />
            <circle cx="362" cy="298" r="8" />
            <circle cx="362" cy="314" r="8" />
            <circle cx="362" cy="346" r="8" />
            <circle cx="362" cy="410" r="8" />
            <circle cx="362" cy="426" r="8" />
            <circle cx="362" cy="442" r="8" />
            <circle cx="378" cy="154" r="8" />
            <circle cx="378" cy="266" r="8" />
            <circle cx="378" cy="298" r="8" />
            <circle cx="378" cy="330" r="8" />
            <circle cx="378" cy="346" r="8" />
            <circle cx="378" cy="378" r="8" />
            <circle cx="378" cy="410" r="8" />
            <circle cx="394" cy="202" r="8" />
            <circle cx="394" cy="266" r="8" />
            <circle cx="394" cy="282" r="8" />
            <circle cx="394" cy="314" r="8" />
            <circle cx="394" cy="330" r="8" />
            <circle cx="394" cy="346" r="8" />
            <circle cx="394" cy="410" r="8" />
            <circle cx="394" cy="426" r="8" />
            <circle cx="394" cy="458" r="8" />
            <circle cx="394" cy="474" r="8" />
            <circle cx="410" cy="170" r="8" />
            <circle cx="410" cy="202" r="8" />
            <circle cx="410" cy="218" r="8" />
            <circle cx="410" cy="234" r="8" />
            <circle cx="410" cy="250" r="8" />
            <circle cx="410" cy="282" r="8" />
            <circle cx="410" cy="330" r="8" />
            <circle cx="410" cy="346" r="8" />
            <circle cx="410" cy="362" r="8" />
            <circle cx="410" cy="378" r="8" />
            <circle cx="410" cy="394" r="8" />
            <circle cx="410" cy="410" r="8" />
            <circle cx="410" cy="458" r="8" />
            <circle cx="410" cy="474" r="8" />
            <circle cx="426" cy="170" r="8" />
            <circle cx="426" cy="186" r="8" />
            <circle cx="426" cy="218" r="8" />
            <circle cx="426" cy="234" r="8" />
            <circle cx="426" cy="250" r="8" />
            <circle cx="426" cy="314" r="8" />
            <circle cx="426" cy="330" r="8" />
            <circle cx="426" cy="346" r="8" />
            <circle cx="426" cy="394" r="8" />
            <circle cx="426" cy="458" r="8" />
            <circle cx="442" cy="218" r="8" />
            <circle cx="442" cy="234" r="8" />
            <circle cx="442" cy="250" r="8" />
            <circle cx="442" cy="266" r="8" />
            <circle cx="442" cy="282" r="8" />
            <circle cx="442" cy="298" r="8" />
            <circle cx="442" cy="314" r="8" />
            <circle cx="442" cy="330" r="8" />
            <circle cx="442" cy="346" r="8" />
            <circle cx="442" cy="362" r="8" />
            <circle cx="442" cy="378" r="8" />
            <circle cx="442" cy="394" r="8" />
            <circle cx="442" cy="410" r="8" />
            <circle cx="442" cy="442" r="8" />
            <circle cx="442" cy="458" r="8" />
            <circle cx="458" cy="154" r="8" />
            <circle cx="458" cy="202" r="8" />
            <circle cx="458" cy="234" r="8" />
            <circle cx="458" cy="266" r="8" />
            <circle cx="458" cy="314" r="8" />
            <circle cx="458" cy="362" r="8" />
            <circle cx="458" cy="410" r="8" />
            <circle cx="458" cy="426" r="8" />
            <circle cx="458" cy="442" r="8" />
            <circle cx="458" cy="474" r="8" />
            <circle cx="474" cy="202" r="8" />
            <circle cx="474" cy="218" r="8" />
            <circle cx="474" cy="234" r="8" />
            <circle cx="474" cy="250" r="8" />
            <circle cx="474" cy="266" r="8" />
            <circle cx="474" cy="298" r="8" />
            <circle cx="474" cy="314" r="8" />
            <circle cx="474" cy="330" r="8" />
            <circle cx="474" cy="410" r="8" />
            <circle cx="474" cy="442" r="8" />
        </clipPath>
        <clipPath id="b">
            <path d="M74 18a56 56 0 1 0 .1 0zm0 16a40 40 0 1 1-.1 0Z" clip-rule="evenodd" />
        </clipPath>
        <clipPath id="c">
            <circle cx="74" cy="74" r="24" />
        </clipPath>
        <clipPath id="d">
            <path d="M482 74a56 56 0 1 0 0 .1zm-16 0a40 40 0 1 1 0-.1Z" clip-rule="evenodd" />
        </clipPath>
        <clipPath id="e">
            <circle cx="426" cy="74" r="24" transform="rotate(90 426 74)" />
        </clipPath>
        <clipPath id="f">
            <path d="M18 426a56 56 0 1 0 0-.1zm16 0a40 40 0 1 1 0 .1Z" clip-rule="evenodd" />
        </clipPath>
        <clipPath id="g">
            <circle cx="74" cy="426" r="24" transform="rotate(-90 74 426)" />
        </clipPath>
    </defs>
    <path fill="#fff" d="M0 0h500v500H0z" clip-path="url('#clip-path-background-color')" />
    <path d="M0 0h500v500H0z" clip-path="url('#a')" />
    <path d="M18 18h112v112H18z" clip-path="url('#b')" />
    <path d="M50 50h48v48H50z" clip-path="url('#c')" />
    <path d="M370 18h112v112H370z" clip-path="url('#d')" />
    <path d="M402 50h48v48h-48z" clip-path="url('#e')" />
    <path d="M18 370h112v112H18z" clip-path="url('#f')" />
    <path d="M50 402h48v48H50z" clip-path="url('#g')" />
</svg>
