<svg viewBox="0 0 500 500">
    <defs>
        <clipPath id="a">
            <circle cx="34" cy="154" r="6" />
            <circle cx="34" cy="190" r="6" />
            <circle cx="34" cy="202" r="6" />
            <circle cx="34" cy="214" r="6" />
            <circle cx="34" cy="226" r="6" />
            <circle cx="34" cy="286" r="6" />
            <circle cx="34" cy="322" r="6" />
            <circle cx="34" cy="346" r="6" />
            <circle cx="34" cy="370" r="6" />
            <circle cx="46" cy="130" r="6" />
            <circle cx="46" cy="166" r="6" />
            <circle cx="46" cy="178" r="6" />
            <circle cx="46" cy="190" r="6" />
            <circle cx="46" cy="214" r="6" />
            <circle cx="46" cy="226" r="6" />
            <circle cx="46" cy="250" r="6" />
            <circle cx="46" cy="262" r="6" />
            <circle cx="46" cy="286" r="6" />
            <circle cx="46" cy="310" r="6" />
            <circle cx="46" cy="322" r="6" />
            <circle cx="46" cy="334" r="6" />
            <circle cx="46" cy="370" r="6" />
            <circle cx="58" cy="130" r="6" />
            <circle cx="58" cy="142" r="6" />
            <circle cx="58" cy="154" r="6" />
            <circle cx="58" cy="178" r="6" />
            <circle cx="58" cy="190" r="6" />
            <circle cx="58" cy="274" r="6" />
            <circle cx="58" cy="334" r="6" />
            <circle cx="58" cy="346" r="6" />
            <circle cx="70" cy="154" r="6" />
            <circle cx="70" cy="202" r="6" />
            <circle cx="70" cy="214" r="6" />
            <circle cx="70" cy="226" r="6" />
            <circle cx="70" cy="262" r="6" />
            <circle cx="70" cy="274" r="6" />
            <circle cx="70" cy="298" r="6" />
            <circle cx="70" cy="322" r="6" />
            <circle cx="70" cy="334" r="6" />
            <circle cx="70" cy="358" r="6" />
            <circle cx="82" cy="166" r="6" />
            <circle cx="82" cy="202" r="6" />
            <circle cx="82" cy="238" r="6" />
            <circle cx="82" cy="310" r="6" />
            <circle cx="82" cy="322" r="6" />
            <circle cx="82" cy="358" r="6" />
            <circle cx="94" cy="154" r="6" />
            <circle cx="94" cy="166" r="6" />
            <circle cx="94" cy="178" r="6" />
            <circle cx="94" cy="190" r="6" />
            <circle cx="94" cy="238" r="6" />
            <circle cx="94" cy="274" r="6" />
            <circle cx="94" cy="298" r="6" />
            <circle cx="94" cy="322" r="6" />
            <circle cx="94" cy="334" r="6" />
            <circle cx="94" cy="346" r="6" />
            <circle cx="106" cy="130" r="6" />
            <circle cx="106" cy="154" r="6" />
            <circle cx="106" cy="178" r="6" />
            <circle cx="106" cy="202" r="6" />
            <circle cx="106" cy="226" r="6" />
            <circle cx="106" cy="250" r="6" />
            <circle cx="106" cy="274" r="6" />
            <circle cx="106" cy="298" r="6" />
            <circle cx="106" cy="322" r="6" />
            <circle cx="106" cy="346" r="6" />
            <circle cx="106" cy="370" r="6" />
            <circle cx="118" cy="166" r="6" />
            <circle cx="118" cy="178" r="6" />
            <circle cx="118" cy="190" r="6" />
            <circle cx="118" cy="202" r="6" />
            <circle cx="118" cy="214" r="6" />
            <circle cx="118" cy="274" r="6" />
            <circle cx="118" cy="310" r="6" />
            <circle cx="118" cy="358" r="6" />
            <circle cx="118" cy="370" r="6" />
            <circle cx="130" cy="46" r="6" />
            <circle cx="130" cy="58" r="6" />
            <circle cx="130" cy="70" r="6" />
            <circle cx="130" cy="94" r="6" />
            <circle cx="130" cy="106" r="6" />
            <circle cx="130" cy="142" r="6" />
            <circle cx="130" cy="154" r="6" />
            <circle cx="130" cy="178" r="6" />
            <circle cx="130" cy="190" r="6" />
            <circle cx="130" cy="226" r="6" />
            <circle cx="130" cy="238" r="6" />
            <circle cx="130" cy="250" r="6" />
            <circle cx="130" cy="286" r="6" />
            <circle cx="130" cy="310" r="6" />
            <circle cx="130" cy="322" r="6" />
            <circle cx="130" cy="346" r="6" />
            <circle cx="130" cy="358" r="6" />
            <circle cx="130" cy="370" r="6" />
            <circle cx="130" cy="442" r="6" />
            <circle cx="130" cy="454" r="6" />
            <circle cx="142" cy="46" r="6" />
            <circle cx="142" cy="82" r="6" />
            <circle cx="142" cy="118" r="6" />
            <circle cx="142" cy="130" r="6" />
            <circle cx="142" cy="190" r="6" />
            <circle cx="142" cy="202" r="6" />
            <circle cx="142" cy="214" r="6" />
            <circle cx="142" cy="274" r="6" />
            <circle cx="142" cy="286" r="6" />
            <circle cx="142" cy="310" r="6" />
            <circle cx="142" cy="334" r="6" />
            <circle cx="142" cy="358" r="6" />
            <circle cx="142" cy="370" r="6" />
            <circle cx="142" cy="382" r="6" />
            <circle cx="142" cy="430" r="6" />
            <circle cx="154" cy="34" r="6" />
            <circle cx="154" cy="82" r="6" />
            <circle cx="154" cy="106" r="6" />
            <circle cx="154" cy="118" r="6" />
            <circle cx="154" cy="130" r="6" />
            <circle cx="154" cy="142" r="6" />
            <circle cx="154" cy="154" r="6" />
            <circle cx="154" cy="166" r="6" />
            <circle cx="154" cy="178" r="6" />
            <circle cx="154" cy="214" r="6" />
            <circle cx="154" cy="226" r="6" />
            <circle cx="154" cy="250" r="6" />
            <circle cx="154" cy="298" r="6" />
            <circle cx="154" cy="310" r="6" />
            <circle cx="154" cy="334" r="6" />
            <circle cx="154" cy="370" r="6" />
            <circle cx="154" cy="382" r="6" />
            <circle cx="154" cy="406" r="6" />
            <circle cx="154" cy="430" r="6" />
            <circle cx="166" cy="58" r="6" />
            <circle cx="166" cy="70" r="6" />
            <circle cx="166" cy="94" r="6" />
            <circle cx="166" cy="130" r="6" />
            <circle cx="166" cy="166" r="6" />
            <circle cx="166" cy="178" r="6" />
            <circle cx="166" cy="214" r="6" />
            <circle cx="166" cy="226" r="6" />
            <circle cx="166" cy="250" r="6" />
            <circle cx="166" cy="274" r="6" />
            <circle cx="166" cy="298" r="6" />
            <circle cx="166" cy="334" r="6" />
            <circle cx="166" cy="346" r="6" />
            <circle cx="166" cy="406" r="6" />
            <circle cx="166" cy="430" r="6" />
            <circle cx="166" cy="442" r="6" />
            <circle cx="166" cy="454" r="6" />
            <circle cx="178" cy="34" r="6" />
            <circle cx="178" cy="46" r="6" />
            <circle cx="178" cy="82" r="6" />
            <circle cx="178" cy="94" r="6" />
            <circle cx="178" cy="106" r="6" />
            <circle cx="178" cy="118" r="6" />
            <circle cx="178" cy="130" r="6" />
            <circle cx="178" cy="142" r="6" />
            <circle cx="178" cy="190" r="6" />
            <circle cx="178" cy="214" r="6" />
            <circle cx="178" cy="226" r="6" />
            <circle cx="178" cy="298" r="6" />
            <circle cx="178" cy="310" r="6" />
            <circle cx="178" cy="334" r="6" />
            <circle cx="178" cy="346" r="6" />
            <circle cx="178" cy="358" r="6" />
            <circle cx="178" cy="382" r="6" />
            <circle cx="178" cy="394" r="6" />
            <circle cx="178" cy="406" r="6" />
            <circle cx="178" cy="418" r="6" />
            <circle cx="190" cy="34" r="6" />
            <circle cx="190" cy="58" r="6" />
            <circle cx="190" cy="70" r="6" />
            <circle cx="190" cy="82" r="6" />
            <circle cx="190" cy="118" r="6" />
            <circle cx="190" cy="142" r="6" />
            <circle cx="190" cy="154" r="6" />
            <circle cx="190" cy="166" r="6" />
            <circle cx="190" cy="202" r="6" />
            <circle cx="190" cy="226" r="6" />
            <circle cx="190" cy="238" r="6" />
            <circle cx="190" cy="262" r="6" />
            <circle cx="190" cy="286" r="6" />
            <circle cx="190" cy="322" r="6" />
            <circle cx="190" cy="370" r="6" />
            <circle cx="190" cy="394" r="6" />
            <circle cx="190" cy="406" r="6" />
            <circle cx="190" cy="418" r="6" />
            <circle cx="190" cy="442" r="6" />
            <circle cx="190" cy="454" r="6" />
            <circle cx="190" cy="466" r="6" />
            <circle cx="202" cy="82" r="6" />
            <circle cx="202" cy="94" r="6" />
            <circle cx="202" cy="106" r="6" />
            <circle cx="202" cy="130" r="6" />
            <circle cx="202" cy="154" r="6" />
            <circle cx="202" cy="214" r="6" />
            <circle cx="202" cy="226" r="6" />
            <circle cx="202" cy="238" r="6" />
            <circle cx="202" cy="274" r="6" />
            <circle cx="202" cy="286" r="6" />
            <circle cx="202" cy="346" r="6" />
            <circle cx="202" cy="370" r="6" />
            <circle cx="202" cy="382" r="6" />
            <circle cx="202" cy="406" r="6" />
            <circle cx="202" cy="418" r="6" />
            <circle cx="202" cy="442" r="6" />
            <circle cx="202" cy="454" r="6" />
            <circle cx="214" cy="34" r="6" />
            <circle cx="214" cy="46" r="6" />
            <circle cx="214" cy="82" r="6" />
            <circle cx="214" cy="118" r="6" />
            <circle cx="214" cy="166" r="6" />
            <circle cx="214" cy="190" r="6" />
            <circle cx="214" cy="226" r="6" />
            <circle cx="214" cy="238" r="6" />
            <circle cx="214" cy="274" r="6" />
            <circle cx="214" cy="310" r="6" />
            <circle cx="214" cy="370" r="6" />
            <circle cx="214" cy="394" r="6" />
            <circle cx="214" cy="406" r="6" />
            <circle cx="214" cy="418" r="6" />
            <circle cx="226" cy="58" r="6" />
            <circle cx="226" cy="82" r="6" />
            <circle cx="226" cy="94" r="6" />
            <circle cx="226" cy="106" r="6" />
            <circle cx="226" cy="154" r="6" />
            <circle cx="226" cy="166" r="6" />
            <circle cx="226" cy="178" r="6" />
            <circle cx="226" cy="190" r="6" />
            <circle cx="226" cy="202" r="6" />
            <circle cx="226" cy="214" r="6" />
            <circle cx="226" cy="226" r="6" />
            <circle cx="226" cy="250" r="6" />
            <circle cx="226" cy="298" r="6" />
            <circle cx="226" cy="334" r="6" />
            <circle cx="226" cy="346" r="6" />
            <circle cx="226" cy="358" r="6" />
            <circle cx="226" cy="382" r="6" />
            <circle cx="226" cy="430" r="6" />
            <circle cx="226" cy="442" r="6" />
            <circle cx="226" cy="454" r="6" />
            <circle cx="238" cy="34" r="6" />
            <circle cx="238" cy="46" r="6" />
            <circle cx="238" cy="58" r="6" />
            <circle cx="238" cy="70" r="6" />
            <circle cx="238" cy="94" r="6" />
            <circle cx="238" cy="130" r="6" />
            <circle cx="238" cy="178" r="6" />
            <circle cx="238" cy="190" r="6" />
            <circle cx="238" cy="202" r="6" />
            <circle cx="238" cy="238" r="6" />
            <circle cx="238" cy="262" r="6" />
            <circle cx="238" cy="274" r="6" />
            <circle cx="238" cy="286" r="6" />
            <circle cx="238" cy="298" r="6" />
            <circle cx="238" cy="322" r="6" />
            <circle cx="238" cy="334" r="6" />
            <circle cx="238" cy="358" r="6" />
            <circle cx="238" cy="394" r="6" />
            <circle cx="238" cy="430" r="6" />
            <circle cx="238" cy="466" r="6" />
            <circle cx="250" cy="70" r="6" />
            <circle cx="250" cy="94" r="6" />
            <circle cx="250" cy="106" r="6" />
            <circle cx="250" cy="118" r="6" />
            <circle cx="250" cy="130" r="6" />
            <circle cx="250" cy="142" r="6" />
            <circle cx="250" cy="154" r="6" />
            <circle cx="250" cy="166" r="6" />
            <circle cx="250" cy="178" r="6" />
            <circle cx="250" cy="190" r="6" />
            <circle cx="250" cy="202" r="6" />
            <circle cx="250" cy="226" r="6" />
            <circle cx="250" cy="238" r="6" />
            <circle cx="250" cy="250" r="6" />
            <circle cx="250" cy="262" r="6" />
            <circle cx="250" cy="274" r="6" />
            <circle cx="250" cy="298" r="6" />
            <circle cx="250" cy="322" r="6" />
            <circle cx="250" cy="346" r="6" />
            <circle cx="250" cy="358" r="6" />
            <circle cx="250" cy="382" r="6" />
            <circle cx="250" cy="394" r="6" />
            <circle cx="250" cy="418" r="6" />
            <circle cx="250" cy="442" r="6" />
            <circle cx="250" cy="454" r="6" />
            <circle cx="250" cy="466" r="6" />
            <circle cx="262" cy="34" r="6" />
            <circle cx="262" cy="46" r="6" />
            <circle cx="262" cy="58" r="6" />
            <circle cx="262" cy="70" r="6" />
            <circle cx="262" cy="94" r="6" />
            <circle cx="262" cy="118" r="6" />
            <circle cx="262" cy="130" r="6" />
            <circle cx="262" cy="178" r="6" />
            <circle cx="262" cy="202" r="6" />
            <circle cx="262" cy="214" r="6" />
            <circle cx="262" cy="238" r="6" />
            <circle cx="262" cy="262" r="6" />
            <circle cx="262" cy="298" r="6" />
            <circle cx="262" cy="310" r="6" />
            <circle cx="262" cy="322" r="6" />
            <circle cx="262" cy="370" r="6" />
            <circle cx="262" cy="382" r="6" />
            <circle cx="262" cy="418" r="6" />
            <circle cx="262" cy="430" r="6" />
            <circle cx="274" cy="34" r="6" />
            <circle cx="274" cy="70" r="6" />
            <circle cx="274" cy="82" r="6" />
            <circle cx="274" cy="94" r="6" />
            <circle cx="274" cy="106" r="6" />
            <circle cx="274" cy="142" r="6" />
            <circle cx="274" cy="166" r="6" />
            <circle cx="274" cy="178" r="6" />
            <circle cx="274" cy="214" r="6" />
            <circle cx="274" cy="238" r="6" />
            <circle cx="274" cy="250" r="6" />
            <circle cx="274" cy="274" r="6" />
            <circle cx="274" cy="286" r="6" />
            <circle cx="274" cy="322" r="6" />
            <circle cx="274" cy="346" r="6" />
            <circle cx="274" cy="370" r="6" />
            <circle cx="274" cy="418" r="6" />
            <circle cx="274" cy="466" r="6" />
            <circle cx="286" cy="34" r="6" />
            <circle cx="286" cy="130" r="6" />
            <circle cx="286" cy="142" r="6" />
            <circle cx="286" cy="190" r="6" />
            <circle cx="286" cy="214" r="6" />
            <circle cx="286" cy="226" r="6" />
            <circle cx="286" cy="238" r="6" />
            <circle cx="286" cy="274" r="6" />
            <circle cx="286" cy="286" r="6" />
            <circle cx="286" cy="298" r="6" />
            <circle cx="286" cy="310" r="6" />
            <circle cx="286" cy="406" r="6" />
            <circle cx="286" cy="442" r="6" />
            <circle cx="286" cy="454" r="6" />
            <circle cx="298" cy="58" r="6" />
            <circle cx="298" cy="70" r="6" />
            <circle cx="298" cy="106" r="6" />
            <circle cx="298" cy="166" r="6" />
            <circle cx="298" cy="202" r="6" />
            <circle cx="298" cy="214" r="6" />
            <circle cx="298" cy="238" r="6" />
            <circle cx="298" cy="250" r="6" />
            <circle cx="298" cy="274" r="6" />
            <circle cx="298" cy="298" r="6" />
            <circle cx="298" cy="310" r="6" />
            <circle cx="298" cy="382" r="6" />
            <circle cx="298" cy="418" r="6" />
            <circle cx="298" cy="430" r="6" />
            <circle cx="310" cy="34" r="6" />
            <circle cx="310" cy="46" r="6" />
            <circle cx="310" cy="58" r="6" />
            <circle cx="310" cy="70" r="6" />
            <circle cx="310" cy="82" r="6" />
            <circle cx="310" cy="94" r="6" />
            <circle cx="310" cy="118" r="6" />
            <circle cx="310" cy="154" r="6" />
            <circle cx="310" cy="166" r="6" />
            <circle cx="310" cy="178" r="6" />
            <circle cx="310" cy="190" r="6" />
            <circle cx="310" cy="202" r="6" />
            <circle cx="310" cy="226" r="6" />
            <circle cx="310" cy="250" r="6" />
            <circle cx="310" cy="310" r="6" />
            <circle cx="310" cy="334" r="6" />
            <circle cx="310" cy="358" r="6" />
            <circle cx="310" cy="370" r="6" />
            <circle cx="310" cy="382" r="6" />
            <circle cx="310" cy="394" r="6" />
            <circle cx="310" cy="430" r="6" />
            <circle cx="310" cy="442" r="6" />
            <circle cx="310" cy="454" r="6" />
            <circle cx="322" cy="34" r="6" />
            <circle cx="322" cy="46" r="6" />
            <circle cx="322" cy="58" r="6" />
            <circle cx="322" cy="82" r="6" />
            <circle cx="322" cy="106" r="6" />
            <circle cx="322" cy="118" r="6" />
            <circle cx="322" cy="178" r="6" />
            <circle cx="322" cy="202" r="6" />
            <circle cx="322" cy="226" r="6" />
            <circle cx="322" cy="250" r="6" />
            <circle cx="322" cy="262" r="6" />
            <circle cx="322" cy="274" r="6" />
            <circle cx="322" cy="298" r="6" />
            <circle cx="322" cy="334" r="6" />
            <circle cx="322" cy="346" r="6" />
            <circle cx="322" cy="370" r="6" />
            <circle cx="322" cy="382" r="6" />
            <circle cx="322" cy="394" r="6" />
            <circle cx="322" cy="418" r="6" />
            <circle cx="322" cy="430" r="6" />
            <circle cx="322" cy="442" r="6" />
            <circle cx="334" cy="46" r="6" />
            <circle cx="334" cy="58" r="6" />
            <circle cx="334" cy="70" r="6" />
            <circle cx="334" cy="94" r="6" />
            <circle cx="334" cy="118" r="6" />
            <circle cx="334" cy="142" r="6" />
            <circle cx="334" cy="166" r="6" />
            <circle cx="334" cy="286" r="6" />
            <circle cx="334" cy="298" r="6" />
            <circle cx="334" cy="322" r="6" />
            <circle cx="334" cy="370" r="6" />
            <circle cx="334" cy="382" r="6" />
            <circle cx="334" cy="394" r="6" />
            <circle cx="334" cy="406" r="6" />
            <circle cx="334" cy="418" r="6" />
            <circle cx="334" cy="454" r="6" />
            <circle cx="334" cy="466" r="6" />
            <circle cx="346" cy="46" r="6" />
            <circle cx="346" cy="58" r="6" />
            <circle cx="346" cy="70" r="6" />
            <circle cx="346" cy="94" r="6" />
            <circle cx="346" cy="106" r="6" />
            <circle cx="346" cy="130" r="6" />
            <circle cx="346" cy="154" r="6" />
            <circle cx="346" cy="178" r="6" />
            <circle cx="346" cy="190" r="6" />
            <circle cx="346" cy="202" r="6" />
            <circle cx="346" cy="214" r="6" />
            <circle cx="346" cy="238" r="6" />
            <circle cx="346" cy="250" r="6" />
            <circle cx="346" cy="262" r="6" />
            <circle cx="346" cy="322" r="6" />
            <circle cx="346" cy="334" r="6" />
            <circle cx="346" cy="346" r="6" />
            <circle cx="346" cy="370" r="6" />
            <circle cx="346" cy="430" r="6" />
            <circle cx="346" cy="454" r="6" />
            <circle cx="358" cy="34" r="6" />
            <circle cx="358" cy="58" r="6" />
            <circle cx="358" cy="70" r="6" />
            <circle cx="358" cy="82" r="6" />
            <circle cx="358" cy="118" r="6" />
            <circle cx="358" cy="154" r="6" />
            <circle cx="358" cy="166" r="6" />
            <circle cx="358" cy="178" r="6" />
            <circle cx="358" cy="190" r="6" />
            <circle cx="358" cy="202" r="6" />
            <circle cx="358" cy="214" r="6" />
            <circle cx="358" cy="238" r="6" />
            <circle cx="358" cy="250" r="6" />
            <circle cx="358" cy="286" r="6" />
            <circle cx="358" cy="298" r="6" />
            <circle cx="358" cy="358" r="6" />
            <circle cx="358" cy="370" r="6" />
            <circle cx="358" cy="382" r="6" />
            <circle cx="358" cy="406" r="6" />
            <circle cx="358" cy="418" r="6" />
            <circle cx="370" cy="82" r="6" />
            <circle cx="370" cy="106" r="6" />
            <circle cx="370" cy="166" r="6" />
            <circle cx="370" cy="190" r="6" />
            <circle cx="370" cy="202" r="6" />
            <circle cx="370" cy="214" r="6" />
            <circle cx="370" cy="262" r="6" />
            <circle cx="370" cy="298" r="6" />
            <circle cx="370" cy="310" r="6" />
            <circle cx="370" cy="334" r="6" />
            <circle cx="370" cy="370" r="6" />
            <circle cx="370" cy="382" r="6" />
            <circle cx="370" cy="394" r="6" />
            <circle cx="370" cy="406" r="6" />
            <circle cx="370" cy="418" r="6" />
            <circle cx="370" cy="442" r="6" />
            <circle cx="370" cy="454" r="6" />
            <circle cx="382" cy="130" r="6" />
            <circle cx="382" cy="190" r="6" />
            <circle cx="382" cy="250" r="6" />
            <circle cx="382" cy="274" r="6" />
            <circle cx="382" cy="310" r="6" />
            <circle cx="382" cy="322" r="6" />
            <circle cx="382" cy="370" r="6" />
            <circle cx="382" cy="418" r="6" />
            <circle cx="382" cy="430" r="6" />
            <circle cx="382" cy="442" r="6" />
            <circle cx="382" cy="466" r="6" />
            <circle cx="394" cy="142" r="6" />
            <circle cx="394" cy="154" r="6" />
            <circle cx="394" cy="178" r="6" />
            <circle cx="394" cy="214" r="6" />
            <circle cx="394" cy="238" r="6" />
            <circle cx="394" cy="262" r="6" />
            <circle cx="394" cy="286" r="6" />
            <circle cx="394" cy="334" r="6" />
            <circle cx="394" cy="346" r="6" />
            <circle cx="394" cy="370" r="6" />
            <circle cx="394" cy="394" r="6" />
            <circle cx="394" cy="418" r="6" />
            <circle cx="394" cy="430" r="6" />
            <circle cx="394" cy="454" r="6" />
            <circle cx="394" cy="466" r="6" />
            <circle cx="406" cy="130" r="6" />
            <circle cx="406" cy="142" r="6" />
            <circle cx="406" cy="166" r="6" />
            <circle cx="406" cy="178" r="6" />
            <circle cx="406" cy="202" r="6" />
            <circle cx="406" cy="214" r="6" />
            <circle cx="406" cy="238" r="6" />
            <circle cx="406" cy="262" r="6" />
            <circle cx="406" cy="274" r="6" />
            <circle cx="406" cy="298" r="6" />
            <circle cx="406" cy="310" r="6" />
            <circle cx="406" cy="322" r="6" />
            <circle cx="406" cy="358" r="6" />
            <circle cx="406" cy="370" r="6" />
            <circle cx="406" cy="418" r="6" />
            <circle cx="406" cy="430" r="6" />
            <circle cx="406" cy="454" r="6" />
            <circle cx="406" cy="466" r="6" />
            <circle cx="418" cy="154" r="6" />
            <circle cx="418" cy="178" r="6" />
            <circle cx="418" cy="214" r="6" />
            <circle cx="418" cy="226" r="6" />
            <circle cx="418" cy="262" r="6" />
            <circle cx="418" cy="298" r="6" />
            <circle cx="418" cy="346" r="6" />
            <circle cx="418" cy="370" r="6" />
            <circle cx="418" cy="382" r="6" />
            <circle cx="418" cy="394" r="6" />
            <circle cx="418" cy="406" r="6" />
            <circle cx="418" cy="418" r="6" />
            <circle cx="418" cy="430" r="6" />
            <circle cx="430" cy="130" r="6" />
            <circle cx="430" cy="154" r="6" />
            <circle cx="430" cy="166" r="6" />
            <circle cx="430" cy="202" r="6" />
            <circle cx="430" cy="214" r="6" />
            <circle cx="430" cy="238" r="6" />
            <circle cx="430" cy="274" r="6" />
            <circle cx="430" cy="286" r="6" />
            <circle cx="430" cy="298" r="6" />
            <circle cx="430" cy="310" r="6" />
            <circle cx="430" cy="370" r="6" />
            <circle cx="430" cy="394" r="6" />
            <circle cx="430" cy="418" r="6" />
            <circle cx="430" cy="430" r="6" />
            <circle cx="430" cy="454" r="6" />
            <circle cx="442" cy="130" r="6" />
            <circle cx="442" cy="154" r="6" />
            <circle cx="442" cy="166" r="6" />
            <circle cx="442" cy="202" r="6" />
            <circle cx="442" cy="226" r="6" />
            <circle cx="442" cy="250" r="6" />
            <circle cx="442" cy="262" r="6" />
            <circle cx="442" cy="274" r="6" />
            <circle cx="442" cy="286" r="6" />
            <circle cx="442" cy="310" r="6" />
            <circle cx="442" cy="322" r="6" />
            <circle cx="442" cy="334" r="6" />
            <circle cx="442" cy="358" r="6" />
            <circle cx="442" cy="370" r="6" />
            <circle cx="442" cy="394" r="6" />
            <circle cx="442" cy="406" r="6" />
            <circle cx="442" cy="418" r="6" />
            <circle cx="442" cy="430" r="6" />
            <circle cx="442" cy="454" r="6" />
            <circle cx="454" cy="130" r="6" />
            <circle cx="454" cy="154" r="6" />
            <circle cx="454" cy="190" r="6" />
            <circle cx="454" cy="202" r="6" />
            <circle cx="454" cy="214" r="6" />
            <circle cx="454" cy="238" r="6" />
            <circle cx="454" cy="250" r="6" />
            <circle cx="454" cy="274" r="6" />
            <circle cx="454" cy="298" r="6" />
            <circle cx="454" cy="334" r="6" />
            <circle cx="454" cy="346" r="6" />
            <circle cx="454" cy="382" r="6" />
            <circle cx="454" cy="394" r="6" />
            <circle cx="454" cy="430" r="6" />
            <circle cx="454" cy="442" r="6" />
            <circle cx="466" cy="142" r="6" />
            <circle cx="466" cy="154" r="6" />
            <circle cx="466" cy="202" r="6" />
            <circle cx="466" cy="226" r="6" />
            <circle cx="466" cy="238" r="6" />
            <circle cx="466" cy="262" r="6" />
            <circle cx="466" cy="274" r="6" />
            <circle cx="466" cy="310" r="6" />
            <circle cx="466" cy="322" r="6" />
            <circle cx="466" cy="334" r="6" />
            <circle cx="466" cy="346" r="6" />
            <circle cx="466" cy="406" r="6" />
            <circle cx="466" cy="442" r="6" />
            <circle cx="466" cy="454" r="6" />
            <circle cx="466" cy="466" r="6" />
        </clipPath>
        <clipPath id="b">
            <path d="M70 28a42 42 0 1 0 .1 0zm0 12a30 30 0 1 1-.1 0Z" clip-rule="evenodd" />
        </clipPath>
        <clipPath id="c">
            <circle cx="70" cy="70" r="18" />
        </clipPath>
        <clipPath id="d">
            <path d="M472 70a42 42 0 1 0 0 .1zm-12 0a30 30 0 1 1 0-.1Z" clip-rule="evenodd" />
        </clipPath>
        <clipPath id="e">
            <circle cx="430" cy="70" r="18" transform="rotate(90 430 70)" />
        </clipPath>
        <clipPath id="f">
            <path d="M28 430a42 42 0 1 0 0-.1zm12 0a30 30 0 1 1 0 .1Z" clip-rule="evenodd" />
        </clipPath>
        <clipPath id="g">
            <circle cx="70" cy="430" r="18" transform="rotate(-90 70 430)" />
        </clipPath>
    </defs>
    <path fill="#fff" d="M0 0h500v500H0z" clip-path="url('#clip-path-background-color')" />
    <path d="M0 0h500v500H0z" clip-path="url('#a')" />
    <path d="M28 28h84v84H28z" clip-path="url('#b')" />
    <path d="M52 52h36v36H52z" clip-path="url('#c')" />
    <path d="M388 28h84v84h-84z" clip-path="url('#d')" />
    <path d="M412 52h36v36h-36z" clip-path="url('#e')" />
    <path d="M28 388h84v84H28z" clip-path="url('#f')" />
    <path d="M52 412h36v36H52z" clip-path="url('#g')" />
</svg>
